<svg width="16" height="35" viewBox="0 0 16 35" fill="none" xmlns="http://www.w3.org/2000/svg">
<path d="M7 33.0122C7 33.5645 7.44772 34.0122 8 34.0122C8.55228 34.0122 9 33.5645 9 33.0122L7 33.0122ZM8.70711 1.28071C8.31658 0.890185 7.68342 0.890185 7.29289 1.28071L0.928931 7.64467C0.538407 8.03519 0.538407 8.66836 0.928931 9.05888C1.31946 9.44941 1.95262 9.44941 2.34314 9.05888L8 3.40203L13.6569 9.05888C14.0474 9.44941 14.6805 9.44941 15.0711 9.05888C15.4616 8.66836 15.4616 8.03519 15.0711 7.64467L8.70711 1.28071ZM9 33.0122L9 1.98782L7 1.98782L7 33.0122L9 33.0122Z" fill="#CEC2FF"/>
</svg>
