<svg width="66" height="58" viewBox="0 0 66 58" fill="none" xmlns="http://www.w3.org/2000/svg">
<rect x="9" y="8" width="49" height="25" rx="5" fill="#31185B"/>
<rect x="3" y="2" width="61" height="37" rx="7" stroke="#CEC2FF" stroke-width="4"/>
<rect x="2" y="47" width="62" height="9" rx="4.5" stroke="#CEC2FF" stroke-width="4"/>
<path d="M27.38 24.4C27.38 23.9867 27.32 23.6467 27.2 23.38C27.08 23.1 26.9267 22.8733 26.74 22.7C26.5667 22.5267 26.3667 22.3867 26.14 22.28C25.9267 22.1733 25.72 22.08 25.52 22V20.5C25.7733 20.4067 26.0133 20.3067 26.24 20.2C26.4667 20.08 26.6667 19.9333 26.84 19.76C27.0133 19.5733 27.1467 19.34 27.24 19.06C27.3333 18.7667 27.38 18.38 27.38 17.9C27.38 17.5267 27.3733 17.1933 27.36 16.9C27.3467 16.5933 27.3267 16.2933 27.3 16C27.2867 15.6933 27.2733 15.3733 27.26 15.04C27.2467 14.6933 27.24 14.3 27.24 13.86C27.24 13.4067 27.36 13.0133 27.6 12.68C27.84 12.3467 28.1333 12.0667 28.48 11.84C28.84 11.6133 29.22 11.4333 29.62 11.3C30.0333 11.1533 30.4067 11.04 30.74 10.96L31.02 12.36C30.6067 12.4533 30.2467 12.58 29.94 12.74C29.6467 12.8867 29.3867 13.08 29.16 13.32C28.9333 13.56 28.82 13.8533 28.82 14.2C28.82 14.7467 28.84 15.3133 28.88 15.9C28.9333 16.4733 28.96 17.18 28.96 18.02C28.9733 18.82 28.86 19.5133 28.62 20.1C28.38 20.6733 27.94 21.06 27.3 21.26C27.94 21.4467 28.3733 21.8 28.6 22.32C28.84 22.8267 28.96 23.48 28.96 24.28C28.96 25.12 28.9333 25.8333 28.88 26.42C28.84 26.9933 28.82 27.5533 28.82 28.1C28.8333 28.46 28.9467 28.7533 29.16 28.98C29.3867 29.22 29.64 29.4133 29.92 29.56C30.24 29.72 30.6067 29.8467 31.02 29.94L30.74 31.34C30.4067 31.26 30.0333 31.1467 29.62 31C29.22 30.8667 28.84 30.68 28.48 30.44C28.12 30.2133 27.82 29.9333 27.58 29.6C27.3533 29.28 27.24 28.8933 27.24 28.44C27.24 28 27.2467 27.6067 27.26 27.26C27.2733 26.9267 27.2867 26.6133 27.3 26.32C27.3267 26.0133 27.3467 25.7133 27.36 25.42C27.3733 25.1133 27.38 24.7733 27.38 24.4ZM40.1942 24.4C40.1942 24.7733 40.2009 25.1133 40.2142 25.42C40.2276 25.7133 40.2409 26.0133 40.2542 26.32C40.2809 26.6133 40.3009 26.9267 40.3142 27.26C40.3276 27.6067 40.3342 28 40.3342 28.44C40.3342 28.8933 40.2142 29.2867 39.9742 29.62C39.7342 29.9533 39.4342 30.2333 39.0742 30.46C38.7276 30.6867 38.3476 30.8733 37.9342 31.02C37.5342 31.1667 37.1676 31.2733 36.8342 31.34L36.5542 29.94C36.9542 29.8467 37.3209 29.72 37.6542 29.56C37.9209 29.4133 38.1676 29.22 38.3942 28.98C38.6342 28.7533 38.7542 28.46 38.7542 28.1C38.7542 27.5533 38.7276 26.9933 38.6742 26.42C38.6342 25.8333 38.6142 25.12 38.6142 24.28C38.6142 23.48 38.7276 22.8267 38.9542 22.32C39.1942 21.8 39.6342 21.4467 40.2742 21.26C39.6609 21.0867 39.2276 20.7067 38.9742 20.12C38.7209 19.52 38.6009 18.82 38.6142 18.02C38.6142 17.18 38.6342 16.4733 38.6742 15.9C38.7276 15.3133 38.7542 14.7467 38.7542 14.2C38.7542 13.8533 38.6409 13.56 38.4142 13.32C38.2009 13.08 37.9476 12.8867 37.6542 12.74C37.3209 12.58 36.9542 12.4533 36.5542 12.36L36.8342 10.96C37.1676 11.04 37.5342 11.1533 37.9342 11.3C38.3476 11.4333 38.7276 11.6133 39.0742 11.84C39.4342 12.0667 39.7342 12.3467 39.9742 12.68C40.2142 13.0133 40.3342 13.4067 40.3342 13.86C40.3342 14.3 40.3276 14.6933 40.3142 15.04C40.3009 15.3733 40.2809 15.6933 40.2542 16C40.2409 16.2933 40.2276 16.5933 40.2142 16.9C40.2009 17.1933 40.1942 17.5267 40.1942 17.9C40.1942 18.38 40.2409 18.7667 40.3342 19.06C40.4276 19.34 40.5609 19.5733 40.7342 19.76C40.9076 19.9333 41.1009 20.0733 41.3142 20.18C41.5409 20.2867 41.7876 20.3933 42.0542 20.5V22C41.8542 22.08 41.6409 22.18 41.4142 22.3C41.1876 22.4067 40.9876 22.5467 40.8142 22.72C40.6409 22.88 40.4942 23.1 40.3742 23.38C40.2542 23.6467 40.1942 23.9867 40.1942 24.4Z" fill="#CEC2FF"/>
</svg>
