<svg width="30" height="30" viewBox="0 0 30 30" fill="none" xmlns="http://www.w3.org/2000/svg">
<path d="M27.5 15C27.1685 15 26.8505 15.1317 26.6161 15.3661C26.3817 15.6005 26.25 15.9185 26.25 16.25V25C26.25 25.6906 25.6906 26.25 25 26.25H5C4.30938 26.25 3.75 25.6906 3.75 25V5C3.75 4.30938 4.30938 3.75 5 3.75H13.75C14.0815 3.75 14.3995 3.6183 14.6339 3.38388C14.8683 3.14946 15 2.83152 15 2.5C15 2.16848 14.8683 1.85054 14.6339 1.61612C14.3995 1.3817 14.0815 1.25 13.75 1.25H5C2.92906 1.25 1.25 2.92906 1.25 5V25C1.25 27.0709 2.92906 28.75 5 28.75H25C27.0709 28.75 28.75 27.0709 28.75 25V16.25C28.75 15.9185 28.6183 15.6005 28.3839 15.3661C28.1495 15.1317 27.8315 15 27.5 15ZM28.75 2.5V10C28.75 10.3315 28.6183 10.6495 28.3839 10.8839C28.1495 11.1183 27.8315 11.25 27.5 11.25C27.1685 11.25 26.8505 11.1183 26.6161 10.8839C26.3817 10.6495 26.25 10.3315 26.25 10V5.5175L16.0091 15.7581C15.773 15.9841 15.4578 16.1086 15.131 16.105C14.8043 16.1014 14.4919 15.9699 14.2608 15.7388C14.0298 15.5078 13.8984 15.1954 13.8949 14.8686C13.8913 14.5418 14.0159 14.2267 14.2419 13.9906L24.4822 3.75H20C19.6685 3.75 19.3505 3.6183 19.1161 3.38388C18.8817 3.14946 18.75 2.83152 18.75 2.5C18.75 2.16848 18.8817 1.85054 19.1161 1.61612C19.3505 1.3817 19.6685 1.25 20 1.25H27.5C27.8315 1.25 28.1495 1.3817 28.3839 1.61612C28.6183 1.85054 28.75 2.16848 28.75 2.5Z" fill="#CEC2FF"/>
</svg>
